<svg fill="currentColor" width="115" height="69" viewBox="0 0 115 69" xmlns="http://www.w3.org/2000/svg">
  <path d="M2.39062 10.3438C2.39062 8.35938 2.86719 6.63281 3.82031 5.16406C4.78906 3.69531 6.13281 2.5625 7.85156 1.76562C9.58594 0.96875 11.6094 0.570312 13.9219 0.570312C16.1562 0.570312 18.1484 0.960938 19.8984 1.74219C21.6484 2.52344 23.0078 3.63281 23.9766 5.07031C24.9453 6.50781 25.4453 8.15625 25.4766 10.0156H18.2344C18.2031 8.95312 17.75 8.09375 16.875 7.4375C16 6.78125 14.8906 6.45312 13.5469 6.45312C12.3594 6.45312 11.4062 6.72656 10.6875 7.27344C9.96875 7.82031 9.60938 8.55469 9.60938 9.47656C9.60938 10.3359 9.91406 10.9844 10.5234 11.4219C11.1484 11.8594 12.0703 12.2266 13.2891 12.5234L18.1406 13.625C20.8594 14.2656 22.8984 15.3672 24.2578 16.9297C25.6172 18.4922 26.2969 20.3984 26.2969 22.6484C26.2969 24.6641 25.7891 26.4219 24.7734 27.9219C23.7734 29.4219 22.3516 30.5859 20.5078 31.4141C18.6797 32.2266 16.5469 32.6328 14.1094 32.6328C10.4688 32.6328 7.51562 31.75 5.25 29.9844C3 28.2188 1.76562 25.8203 1.54688 22.7891H8.74219C8.83594 24.0391 9.36719 25.0078 10.3359 25.6953C11.3203 26.3828 12.6094 26.7266 14.2031 26.7266C15.6719 26.7266 16.8203 26.4297 17.6484 25.8359C18.4922 25.2422 18.9141 24.4297 18.9141 23.3984C18.9141 22.5703 18.6406 21.9297 18.0938 21.4766C17.5469 21.0078 16.7812 20.6562 15.7969 20.4219L10.7109 19.2266C7.83594 18.5547 5.72656 17.4531 4.38281 15.9219C3.05469 14.3906 2.39062 12.5312 2.39062 10.3438ZM48.7753 10.3438V32H43.2206L42.7753 29.5625C42.0097 30.5938 41.0566 31.3672 39.9159 31.8828C38.7909 32.3828 37.5331 32.6328 36.1425 32.6328C33.5487 32.6328 31.5487 31.8672 30.1425 30.3359C28.7362 28.7891 28.0331 26.6875 28.0331 24.0312V10.3438H34.7597V23.0234C34.7597 24.3672 35.0722 25.3359 35.6972 25.9297C36.3222 26.5234 37.2284 26.8203 38.4159 26.8203C39.5722 26.8203 40.4628 26.4609 41.0878 25.7422C41.7284 25.0234 42.0487 24.0547 42.0487 22.8359V10.3438H48.7753ZM65.1131 9.59375C67.1912 9.59375 69.035 10.0703 70.6444 11.0234C72.2694 11.9766 73.535 13.3281 74.4412 15.0781C75.3631 16.8281 75.8241 18.8359 75.8241 21.1016C75.8241 23.3672 75.3631 25.375 74.4412 27.125C73.535 28.875 72.2694 30.2344 70.6444 31.2031C69.035 32.1562 67.1912 32.6328 65.1131 32.6328C63.7069 32.6328 62.4412 32.4297 61.3162 32.0234C60.1912 31.6172 59.2616 31.0469 58.5272 30.3125V42.2188H51.8241V10.3438H57.3787L57.7772 12.8516C58.5116 11.8203 59.5272 11.0234 60.8241 10.4609C62.1209 9.88281 63.5506 9.59375 65.1131 9.59375ZM63.8241 26.6328C65.3553 26.6328 66.5897 26.1328 67.5272 25.1328C68.4803 24.1172 68.9569 22.7891 68.9569 21.1484C68.9569 19.5234 68.4881 18.2109 67.5506 17.2109C66.6287 16.1953 65.3866 15.6875 63.8241 15.6875C62.2616 15.6875 60.9959 16.1875 60.0272 17.1875C59.0584 18.1719 58.5741 19.4922 58.5741 21.1484C58.5741 22.8047 59.0506 24.1328 60.0037 25.1328C60.9725 26.1328 62.2459 26.6328 63.8241 26.6328ZM99.2869 25.0391C98.8337 27.3047 97.6072 29.1406 95.6072 30.5469C93.6072 31.9375 91.2166 32.6328 88.4353 32.6328C86.1697 32.6328 84.1697 32.1562 82.4353 31.2031C80.7009 30.2344 79.3572 28.8828 78.4041 27.1484C77.4509 25.3984 76.9744 23.3828 76.9744 21.1016C76.9744 18.8047 77.4509 16.7812 78.4041 15.0312C79.3572 13.2812 80.7009 11.9375 82.4353 11C84.1697 10.0625 86.1228 9.59375 88.2947 9.59375C90.4353 9.59375 92.3337 10.0391 93.99 10.9297C95.6619 11.8203 96.9509 13.0625 97.8572 14.6562C98.7791 16.2344 99.24 18.0312 99.24 20.0469C99.24 21.1719 99.1462 22.1484 98.9587 22.9766H83.5837C83.6462 24.2578 84.115 25.2812 84.99 26.0469C85.8806 26.8125 87.0291 27.1953 88.4353 27.1953C89.4978 27.1953 90.4119 27 91.1775 26.6094C91.9431 26.2031 92.4666 25.6797 92.7478 25.0391H99.2869ZM92.3728 18.6172C92.3416 17.5234 91.9197 16.6562 91.1072 16.0156C90.3103 15.375 89.2947 15.0547 88.0603 15.0547C86.8103 15.0547 85.7791 15.375 84.9666 16.0156C84.1697 16.6562 83.74 17.5234 83.6775 18.6172H92.3728ZM112.882 10.1562C113.586 10.1562 114.257 10.2188 114.898 10.3438V16.1562C114.679 16.125 114.343 16.1094 113.89 16.1094C111.968 16.1094 110.484 16.6172 109.437 17.6328C108.406 18.6328 107.89 20.0469 107.89 21.875V32H101.187V10.3438H107.328L107.75 13.2734C108.109 12.2422 108.742 11.4688 109.648 10.9531C110.554 10.4219 111.632 10.1562 112.882 10.1562ZM8.01562 46.3438L9.39844 51.2891C10.2891 54.4922 10.9453 57.1016 11.3672 59.1172C11.4297 58.8984 12.5078 55.2188 14.6016 48.0781L14.9766 46.7891H22.0781C22.3594 47.7734 22.8359 49.5312 23.5078 52.0625C24.1953 54.5938 24.8359 57.0938 25.4297 59.5625C25.9141 57.4531 26.6406 54.7422 27.6094 51.4297L29.0859 46.3438H36.1875L28.5703 68H22.0312C20.4688 62.75 19.2812 58.4453 18.4688 55.0859C18.3125 55.7891 17.8906 57.3984 17.2031 59.9141C16.5156 62.4297 15.7266 65.125 14.8359 68H8.01562L0.773438 46.3438H8.01562ZM35.4394 57.1484C35.4394 54.9141 35.9394 52.9219 36.9394 51.1719C37.955 49.4062 39.3691 48.0391 41.1816 47.0703C43.0097 46.0859 45.1113 45.5938 47.4863 45.5938C49.8613 45.5938 51.9472 46.0859 53.7441 47.0703C55.5566 48.0391 56.9628 49.4062 57.9628 51.1719C58.9784 52.9219 59.4863 54.9141 59.4863 57.1484C59.4863 59.3516 58.9784 61.3281 57.9628 63.0781C56.9628 64.8281 55.5488 66.1953 53.7206 67.1797C51.8925 68.1484 49.8144 68.6328 47.4863 68.6328C45.1113 68.6328 43.0097 68.1484 41.1816 67.1797C39.3691 66.1953 37.955 64.8281 36.9394 63.0781C35.9394 61.3281 35.4394 59.3516 35.4394 57.1484ZM42.2831 57.1016C42.2831 58.7422 42.7597 60.0859 43.7128 61.1328C44.6816 62.1641 45.9394 62.6797 47.4863 62.6797C49.0175 62.6797 50.2597 62.1641 51.2128 61.1328C52.1816 60.0859 52.6659 58.7422 52.6659 57.1016C52.6659 55.4766 52.1894 54.1562 51.2363 53.1406C50.2988 52.1094 49.0488 51.5938 47.4863 51.5938C45.9238 51.5938 44.6659 52.1094 43.7128 53.1406C42.7597 54.1562 42.2831 55.4766 42.2831 57.1016ZM73.3631 46.1562C74.0662 46.1562 74.7381 46.2188 75.3787 46.3438V52.1562C75.16 52.125 74.8241 52.1094 74.3709 52.1094C72.4491 52.1094 70.9647 52.6172 69.9178 53.6328C68.8866 54.6328 68.3709 56.0469 68.3709 57.875V68H61.6678V46.3438H67.8084L68.2303 49.2734C68.5897 48.2422 69.2225 47.4688 70.1287 46.9531C71.035 46.4219 72.1131 46.1562 73.3631 46.1562ZM91.5291 54.3594L98.7712 68H91.2009L86.7244 59.3516L83.7009 62.4688V68H76.9978V35.0703H83.7009V54.2656L90.9666 46.3438H99.2634L91.5291 54.3594Z" />
</svg>
