<svg fill="currentColor" width="148" height="74" viewBox="0 0 148 74" xmlns="http://www.w3.org/2000/svg">
  <path d="M15.6086 35.768C10.9526 35.768 7.35256 34.76 4.80856 32.648C2.26456 30.584 0.968559 27.608 0.968559 23.72H7.35256C7.35256 26.168 8.07256 27.896 9.51256 28.952C10.9526 30.008 13.0166 30.536 15.8006 30.536C18.0086 30.536 19.7366 30.152 20.9366 29.288C22.0886 28.424 22.7126 27.224 22.7126 25.592C22.7126 24.248 22.1846 23.24 21.1766 22.52C20.1686 21.848 18.3446 21.224 15.7046 20.648L12.8246 20.072C5.48056 18.728 1.83256 15.272 1.83256 9.704C1.83256 6.776 2.93656 4.424 5.19256 2.696C7.40056 0.967998 10.5206 0.0559978 14.5046 0.0559978C19.0166 0.0559978 22.4246 1.016 24.7286 2.936C27.0326 4.856 28.2806 7.544 28.4246 11H22.1366C21.9926 9.08 21.3206 7.64 20.1686 6.68C19.0166 5.768 17.1446 5.288 14.6006 5.288C12.5846 5.288 11.0966 5.672 10.0406 6.392C8.98456 7.16 8.45656 8.168 8.45656 9.512C8.45656 10.904 8.93656 11.96 9.89656 12.68C10.8566 13.448 12.6326 14.072 15.1286 14.552L18.1046 15.128C22.0886 15.944 24.9686 17.144 26.7446 18.728C28.5206 20.312 29.4326 22.472 29.4326 25.256C29.4326 28.616 28.1846 31.208 25.7846 33.032C23.3366 34.856 19.9286 35.768 15.6086 35.768ZM45.0671 35.72C40.6031 35.72 37.0991 34.568 34.5551 32.168C32.0111 29.768 30.7631 26.456 30.7631 22.136V0.823999H37.2431V22.184C37.2431 24.776 37.9151 26.744 39.2591 28.088C40.6031 29.432 42.5231 30.104 45.0671 30.104C47.5631 30.104 49.5311 29.432 50.8751 28.088C52.2191 26.744 52.8911 24.776 52.8911 22.184V0.823999H59.3711V22.136C59.3711 26.504 58.0751 29.864 55.5791 32.216C53.0351 34.568 49.5311 35.72 45.0671 35.72ZM62.5574 0.823999H77.5814C81.3734 0.823999 84.3494 1.832 86.4614 3.848C88.5734 5.864 89.6774 8.552 89.6774 11.96C89.6774 15.368 88.5734 18.056 86.4614 20.072C84.3494 22.088 81.3734 23.048 77.5814 23.048H69.0374V35H62.5574V0.823999ZM69.0374 17.48H77.2934C79.1654 17.48 80.6054 17.048 81.6134 16.088C82.6214 15.128 83.1494 13.784 83.1494 11.96C83.1494 10.184 82.6214 8.792 81.6134 7.832C80.6054 6.872 79.1654 6.392 77.2934 6.392H69.0374V17.48ZM116.962 0.823999V6.632H98.2424V14.696H115.186V20.264H98.2424V29.192H116.866V35H91.7624V0.823999H116.962ZM145.83 25.928L146.118 31.016C146.118 32.648 146.502 33.992 147.174 35H140.502C139.926 34.04 139.59 32.696 139.59 30.92L139.446 27.176C139.35 25.112 138.87 23.672 138.006 22.856C137.142 22.04 135.798 21.608 133.974 21.608H125.526V35H119.046V0.823999H134.55C138.342 0.823999 141.318 1.688 143.43 3.416C145.542 5.144 146.598 7.496 146.598 10.472C146.598 14.6 144.678 17.288 140.886 18.632C142.614 19.208 143.814 20.072 144.582 21.224C145.35 22.376 145.734 23.96 145.83 25.928ZM125.526 6.152V16.52H134.166C135.99 16.52 137.382 16.088 138.39 15.176C139.398 14.264 139.926 12.92 139.926 11.192C139.926 9.56 139.398 8.312 138.342 7.448C137.286 6.584 135.846 6.152 133.926 6.152H125.526ZM39.2004 52.6L42.8004 38.824H49.5204L40.0644 73H32.7684L29.1204 58.792C27.5844 52.552 26.6724 48.52 26.3364 46.696C25.4244 50.968 24.5124 55 23.5524 58.792L19.9044 73H12.6564L3.15237 38.824H9.92037L13.4724 52.6C15.1044 59.272 16.1604 63.592 16.5924 65.608C17.6004 60.808 18.5604 56.488 19.5204 52.552L23.0244 38.824H29.6964L33.2004 52.552C34.0644 56.2 35.0244 60.568 36.0804 65.656C36.7524 62.68 37.7604 58.36 39.2004 52.6ZM65.0326 73.768C59.8966 73.768 55.7686 72.136 52.6486 68.872C49.4806 65.608 47.9446 61.288 47.9446 55.912C47.9446 50.584 49.4806 46.264 52.6486 42.952C55.7686 39.688 59.8966 38.056 65.0326 38.056C70.1206 38.056 74.2486 39.688 77.4166 42.952C80.4886 46.216 82.0726 50.536 82.0726 55.912C82.0726 61.336 80.4886 65.656 77.4166 68.872C74.2486 72.136 70.1206 73.768 65.0326 73.768ZM57.5446 64.792C59.4166 67 61.9126 68.056 65.0326 68.056C68.1526 68.056 70.6486 67 72.5686 64.792C74.3926 62.68 75.3526 59.704 75.3526 55.912C75.3526 52.168 74.3926 49.192 72.5686 47.032C70.6486 44.872 68.1526 43.768 65.0326 43.768C61.9126 43.768 59.4166 44.872 57.5446 47.032C55.6246 49.24 54.7126 52.168 54.7126 55.912C54.7126 59.656 55.6246 62.632 57.5446 64.792ZM111.092 63.928L111.38 69.016C111.38 70.648 111.764 71.992 112.436 73H105.764C105.188 72.04 104.852 70.696 104.852 68.92L104.708 65.176C104.612 63.112 104.132 61.672 103.268 60.856C102.404 60.04 101.06 59.608 99.2364 59.608H90.7884V73H84.3084V38.824H99.8124C103.604 38.824 106.58 39.688 108.692 41.416C110.804 43.144 111.86 45.496 111.86 48.472C111.86 52.6 109.94 55.288 106.148 56.632C107.876 57.208 109.076 58.072 109.844 59.224C110.612 60.376 110.996 61.96 111.092 63.928ZM90.7884 44.152V54.52H99.4284C101.252 54.52 102.644 54.088 103.652 53.176C104.66 52.264 105.188 50.92 105.188 49.192C105.188 47.56 104.66 46.312 103.604 45.448C102.548 44.584 101.108 44.152 99.1884 44.152H90.7884ZM136.774 38.824H144.838L130.774 52.744L144.838 73H137.11L126.166 57.064L120.79 62.296V73H114.31V38.824H120.79V54.952L136.774 38.824Z" />
</svg>
