<svg fill="currentColor" width="141" height="74" viewBox="0 0 141 74" xmlns="http://www.w3.org/2000/svg">
  <path d="M13.92 35.576C11.488 35.576 9.312 35.16 7.392 34.328C5.504 33.496 4.016 32.28 2.928 30.68C1.84 29.08 1.264 27.144 1.2 24.872H8.064C8.096 25.864 8.336 26.76 8.784 27.56C9.264 28.36 9.936 29 10.8 29.48C11.664 29.928 12.704 30.152 13.92 30.152C14.912 30.152 15.792 30.008 16.56 29.72C17.328 29.4 17.92 28.952 18.336 28.376C18.784 27.768 19.008 27.016 19.008 26.12C19.008 25.16 18.768 24.36 18.288 23.72C17.84 23.08 17.2 22.536 16.368 22.088C15.536 21.608 14.592 21.192 13.536 20.84C12.512 20.456 11.44 20.072 10.32 19.688C7.6 18.76 5.52 17.56 4.08 16.088C2.672 14.616 1.968 12.68 1.968 10.28C1.968 8.328 2.448 6.648 3.408 5.24C4.368 3.832 5.712 2.744 7.44 1.976C9.168 1.208 11.136 0.823999 13.344 0.823999C15.616 0.823999 17.616 1.224 19.344 2.024C21.072 2.792 22.432 3.912 23.424 5.384C24.416 6.856 24.944 8.584 25.008 10.568H18.048C18.016 9.704 17.792 8.952 17.376 8.312C16.992 7.672 16.432 7.16 15.696 6.776C14.992 6.392 14.16 6.2 13.2 6.2C12.368 6.168 11.6 6.296 10.896 6.584C10.224 6.84 9.696 7.24 9.312 7.784C8.928 8.296 8.736 8.984 8.736 9.848C8.736 10.648 8.912 11.32 9.264 11.864C9.648 12.408 10.176 12.888 10.848 13.304C11.552 13.688 12.368 14.072 13.296 14.456C14.256 14.808 15.328 15.192 16.512 15.608C18.208 16.184 19.76 16.872 21.168 17.672C22.576 18.44 23.696 19.448 24.528 20.696C25.392 21.944 25.824 23.56 25.824 25.544C25.824 27.336 25.36 29 24.432 30.536C23.536 32.04 22.208 33.256 20.448 34.184C18.688 35.112 16.512 35.576 13.92 35.576ZM42.2629 35.576C39.7989 35.576 37.5589 35.08 35.5429 34.088C33.5269 33.096 31.9269 31.608 30.7429 29.624C29.5589 27.64 28.9669 25.112 28.9669 22.04V1.4H35.4469V22.088C35.4469 23.752 35.7189 25.16 36.2629 26.312C36.8069 27.432 37.6069 28.264 38.6629 28.808C39.7189 29.352 40.9669 29.624 42.4069 29.624C43.8789 29.624 45.1269 29.352 46.1509 28.808C47.1749 28.264 47.9589 27.432 48.5029 26.312C49.0789 25.16 49.3669 23.752 49.3669 22.088V1.4H55.8469V22.04C55.8469 25.112 55.2229 27.64 53.9749 29.624C52.7589 31.608 51.1269 33.096 49.0789 34.088C47.0309 35.08 44.7589 35.576 42.2629 35.576ZM59.91 35V1.4H72.534C75.254 1.4 77.494 1.864 79.254 2.792C81.046 3.688 82.374 4.92 83.238 6.488C84.134 8.056 84.582 9.832 84.582 11.816C84.582 13.64 84.15 15.336 83.286 16.904C82.454 18.472 81.142 19.752 79.35 20.744C77.59 21.704 75.318 22.184 72.534 22.184H66.39V35H59.91ZM66.39 16.952H72.15C74.198 16.952 75.67 16.488 76.566 15.56C77.494 14.632 77.958 13.384 77.958 11.816C77.958 10.184 77.494 8.92 76.566 8.024C75.67 7.128 74.198 6.68 72.15 6.68H66.39V16.952ZM87.7069 35V1.4H109.835V6.632H94.1869V15.416H108.395V20.456H94.1869V29.768H109.835V35H87.7069ZM113.441 35V1.4H126.017C128.705 1.4 130.929 1.864 132.689 2.792C134.481 3.72 135.809 4.968 136.673 6.536C137.537 8.072 137.969 9.784 137.969 11.672C137.969 13.464 137.537 15.144 136.673 16.712C135.841 18.248 134.529 19.496 132.737 20.456C130.977 21.384 128.705 21.848 125.921 21.848H119.921V35H113.441ZM130.865 35L123.953 20.216H130.961L138.257 35H130.865ZM119.921 17.144H125.585C127.569 17.144 129.025 16.664 129.953 15.704C130.881 14.744 131.345 13.48 131.345 11.912C131.345 10.344 130.881 9.112 129.953 8.216C129.025 7.288 127.569 6.824 125.585 6.824H119.921V17.144ZM8.016 73L0.24 39.4H7.104L13.056 68.92H13.296L19.968 39.4H27.744L34.8 68.92H34.992L40.608 39.4H47.472L39.792 73H30.24L23.904 46.408H23.712L17.52 73H8.016ZM64.7936 73.576C61.4656 73.576 58.5376 72.84 56.0096 71.368C53.5136 69.896 51.5456 67.864 50.1056 65.272C48.6656 62.648 47.9456 59.624 47.9456 56.2C47.9456 52.776 48.6656 49.768 50.1056 47.176C51.5456 44.552 53.5136 42.504 56.0096 41.032C58.5376 39.56 61.4656 38.824 64.7936 38.824C68.1536 38.824 71.0976 39.56 73.6256 41.032C76.1856 42.504 78.1696 44.552 79.5776 47.176C80.9856 49.768 81.6896 52.776 81.6896 56.2C81.6896 59.624 80.9856 62.648 79.5776 65.272C78.1696 67.864 76.1856 69.896 73.6256 71.368C71.0976 72.84 68.1536 73.576 64.7936 73.576ZM64.7936 67.768C66.9056 67.768 68.7296 67.304 70.2656 66.376C71.8016 65.416 72.9856 64.072 73.8176 62.344C74.6496 60.616 75.0656 58.568 75.0656 56.2C75.0656 53.8 74.6496 51.752 73.8176 50.056C72.9856 48.328 71.8016 47 70.2656 46.072C68.7296 45.144 66.9056 44.68 64.7936 44.68C62.7456 44.68 60.9536 45.144 59.4176 46.072C57.8816 47 56.6816 48.328 55.8176 50.056C54.9856 51.752 54.5696 53.8 54.5696 56.2C54.5696 58.568 54.9856 60.616 55.8176 62.344C56.6816 64.072 57.8816 65.416 59.4176 66.376C60.9536 67.304 62.7456 67.768 64.7936 67.768ZM85.5506 73V39.4H98.1266C100.815 39.4 103.039 39.864 104.799 40.792C106.591 41.72 107.919 42.968 108.783 44.536C109.647 46.072 110.079 47.784 110.079 49.672C110.079 51.464 109.647 53.144 108.783 54.712C107.951 56.248 106.639 57.496 104.847 58.456C103.087 59.384 100.815 59.848 98.0306 59.848H92.0306V73H85.5506ZM102.975 73L96.0626 58.216H103.071L110.367 73H102.975ZM92.0306 55.144H97.6946C99.6786 55.144 101.135 54.664 102.063 53.704C102.991 52.744 103.455 51.48 103.455 49.912C103.455 48.344 102.991 47.112 102.063 46.216C101.135 45.288 99.6786 44.824 97.6946 44.824H92.0306V55.144ZM113.254 73V39.4H119.734V52.552L131.878 39.4H139.894L125.494 54.76L140.23 73H132.214L119.734 57.736V73H113.254Z" />
</svg>
