<svg fill="currentColor" width="135" height="67" viewBox="0 0 135 67" xmlns="http://www.w3.org/2000/svg">
  <path d="M2.34375 10.5547C2.34375 8.53906 2.82812 6.78125 3.79688 5.28125C4.78125 3.76562 6.17188 2.60156 7.96875 1.78906C9.76562 0.976562 11.8281 0.570312 14.1562 0.570312C16.4531 0.570312 18.5 0.96875 20.2969 1.76562C22.0938 2.5625 23.4844 3.6875 24.4688 5.14062C25.4688 6.59375 25.9844 8.28125 26.0156 10.2031H18C17.9688 9.25 17.5469 8.49219 16.7344 7.92969C15.9219 7.36719 14.9219 7.08594 13.7344 7.08594C12.7031 7.08594 11.8828 7.3125 11.2734 7.76562C10.6641 8.20312 10.3594 8.8125 10.3594 9.59375C10.3594 10.2656 10.6328 10.7969 11.1797 11.1875C11.7266 11.5625 12.5781 11.875 13.7344 12.125L18.4688 13.1797C21.4062 13.8516 23.5391 15 24.8672 16.625C26.2109 18.2344 26.8828 20.1562 26.8828 22.3906C26.8828 24.4688 26.3672 26.2812 25.3359 27.8281C24.3203 29.3594 22.8672 30.5469 20.9766 31.3906C19.0859 32.2188 16.8906 32.6328 14.3906 32.6328C10.6094 32.6328 7.5625 31.7266 5.25 29.9141C2.9375 28.1016 1.67969 25.6484 1.47656 22.5547H9.44531C9.53906 23.6797 10.0234 24.5547 10.8984 25.1797C11.7891 25.7891 12.9688 26.0938 14.4375 26.0938C15.75 26.0938 16.7734 25.8516 17.5078 25.3672C18.2578 24.8672 18.6328 24.1641 18.6328 23.2578C18.6328 22.5859 18.4141 22.0625 17.9766 21.6875C17.5391 21.2969 16.8594 20.9922 15.9375 20.7734L10.8984 19.625C5.19531 18.3125 2.34375 15.2891 2.34375 10.5547ZM28.4559 1.22656H36.2372V20C36.2372 21.8594 36.7684 23.2734 37.8309 24.2422C38.9091 25.1953 40.3622 25.6719 42.1903 25.6719C44.2059 25.6719 45.7137 25.1719 46.7137 24.1719C47.7294 23.1562 48.2372 21.7656 48.2372 20V1.22656H56.0184V20.3281C56.0184 24.2031 54.7684 27.2266 52.2684 29.3984C49.7684 31.5547 46.4091 32.6328 42.1903 32.6328C39.3153 32.6328 36.8387 32.1328 34.7606 31.1328C32.6981 30.1172 31.1278 28.6797 30.0497 26.8203C28.9872 24.9609 28.4559 22.7969 28.4559 20.3281V1.22656ZM72.6853 1.22656C76.1384 1.22656 78.8416 2.15625 80.7947 4.01562C82.7478 5.875 83.7244 8.42188 83.7244 11.6562C83.7244 14.7969 82.7322 17.3203 80.7478 19.2266C78.7634 21.1172 76.0212 22.0625 72.5212 22.0625H67.1541V32H59.3728V1.22656H72.6853ZM71.0916 15.4297C72.6228 15.4297 73.74 15.0391 74.4431 14.2578C75.1462 13.4766 75.4978 12.5625 75.4978 11.5156C75.4978 10.6562 75.1462 9.85156 74.4431 9.10156C73.74 8.33594 72.6228 7.95312 71.0916 7.95312H67.1541V15.4297H71.0916ZM92.5866 8.23438V13.0391H104.001V19.8125H92.5866V24.9922H105.501V32H84.8053V1.22656H105.501V8.23438H92.5866ZM108.222 1.22656H120.714C129.136 1.22656 133.339 4.63281 133.324 11.4453C133.324 13.4922 132.894 15.2734 132.035 16.7891C131.175 18.2891 129.925 19.4531 128.285 20.2812L133.722 32H124.98L120.527 21.6406H116.003V32H108.222V1.22656ZM120.667 15.0078C122.199 15.0078 123.324 14.6641 124.042 13.9766C124.761 13.2891 125.121 12.4453 125.121 11.4453C125.121 10.4922 124.777 9.67188 124.089 8.98438C123.402 8.29688 122.277 7.95312 120.714 7.95312H116.003V15.0078H120.667ZM8.83594 35.2266L11.4141 43.5938C12.2422 46.3125 12.8906 48.625 13.3594 50.5312C13.8281 52.4219 14.0625 53.4531 14.0625 53.625L19.0547 36.0469H27.6094L32.6016 53.625C32.6016 53.4688 32.8203 52.4453 33.2578 50.5547C33.7109 48.6641 34.3672 46.3438 35.2266 43.5938L37.8281 35.2266H46.1719L36.2812 66H28.7109L26.8828 59.9531C26.1484 57.5781 25.4219 55.0703 24.7031 52.4297C23.9844 49.7891 23.5234 48.0703 23.3203 47.2734C23.1328 48.0703 22.6875 49.7891 21.9844 52.4297C21.2812 55.0703 20.5625 57.5781 19.8281 59.9531L17.9531 66H10.3594L0.46875 35.2266H8.83594ZM77.4872 50.6016C77.4872 53.7578 76.7762 56.5469 75.3544 58.9688C73.9325 61.3906 71.9481 63.2734 69.4012 64.6172C66.8544 65.9609 63.9481 66.6328 60.6825 66.6328C57.4481 66.6328 54.5653 65.9688 52.0341 64.6406C49.5184 63.3125 47.5419 61.4375 46.1044 59.0156C44.6825 56.5938 43.9716 53.8047 43.9716 50.6484C43.9716 47.5078 44.6747 44.7188 46.0809 42.2812C47.5028 39.8281 49.4794 37.9297 52.0106 36.5859C54.5575 35.2422 57.4637 34.5703 60.7294 34.5703C63.9637 34.5703 66.8544 35.2422 69.4012 36.5859C71.9481 37.9297 73.9325 39.8125 75.3544 42.2344C76.7762 44.6406 77.4872 47.4297 77.4872 50.6016ZM69.2372 50.6016C69.2372 47.9453 68.4559 45.8125 66.8934 44.2031C65.3466 42.5781 63.3075 41.7656 60.7762 41.7656C58.2137 41.7656 56.1434 42.5859 54.5653 44.2266C52.9872 45.8516 52.1981 47.9922 52.1981 50.6484C52.1981 53.3047 52.9794 55.4297 54.5419 57.0234C56.1044 58.6172 58.1669 59.4141 60.7294 59.4141C63.2606 59.4141 65.3075 58.6094 66.87 57C68.4481 55.3906 69.2372 53.2578 69.2372 50.6016ZM79.2478 35.2266H91.74C100.162 35.2266 104.365 38.6328 104.349 45.4453C104.349 47.4922 103.92 49.2734 103.06 50.7891C102.201 52.2891 100.951 53.4531 99.3103 54.2812L104.748 66H96.0056L91.5525 55.6406H87.0291V66H79.2478V35.2266ZM91.6931 49.0078C93.2244 49.0078 94.3494 48.6641 95.0681 47.9766C95.7869 47.2891 96.1462 46.4453 96.1462 45.4453C96.1462 44.4922 95.8025 43.6719 95.115 42.9844C94.4275 42.2969 93.3025 41.9531 91.74 41.9531H87.0291V49.0078H91.6931ZM118.508 55.2422L114.29 60.6328V66.1406H106.508V35.2266H114.29V48.4688L124.602 35.2266H134.305L123.899 48.4688L134.399 66H125.094L118.508 55.2422Z" />
</svg>
