<svg width="64" height="64" viewBox="0 0 64 64" fill="none" xmlns="http://www.w3.org/2000/svg">
<rect width="64" height="64" rx="8" fill="#000011" fill-opacity="0.9" style="fill:#000011;fill:color(display-p3 0.0000 0.0000 0.0667);fill-opacity:0.9;"/>
<path d="M18.9545 24.9737C18.9545 22.7456 19.4937 20.807 20.572 19.1579C21.6679 17.5088 23.1881 16.2368 25.1326 15.3421C27.0947 14.4474 29.3838 14 32 14C34.5278 14 36.7816 14.4386 38.7614 15.3158C40.7412 16.193 42.279 17.4386 43.375 19.0526C44.471 20.6667 45.0366 22.5175 45.072 24.6053H36.8788C36.8434 23.4123 36.3308 22.4474 35.3409 21.7105C34.351 20.9737 33.096 20.6053 31.5758 20.6053C30.2323 20.6053 29.154 20.9123 28.3409 21.5263C27.5278 22.1404 27.1212 22.9649 27.1212 24C27.1212 24.9649 27.4659 25.693 28.1553 26.1842C28.8624 26.6754 29.9053 27.0877 31.2841 27.4211L36.7727 28.6579C39.8485 29.3772 42.1553 30.614 43.6932 32.3684C45.2311 34.1228 46 36.2632 46 38.7895C46 41.0526 45.4255 43.0263 44.2765 44.7105C43.1452 46.3947 41.5366 47.7018 39.4508 48.6316C37.3826 49.5439 34.9697 50 32.2121 50C28.0934 50 24.7525 49.0088 22.1894 47.0263C19.6439 45.0439 18.2475 42.3509 18 38.9474H26.1402C26.2462 40.3509 26.8472 41.4386 27.9432 42.2105C29.0568 42.9825 30.5152 43.3684 32.3182 43.3684C33.9798 43.3684 35.279 43.0351 36.2159 42.3684C37.1705 41.7018 37.6477 40.7895 37.6477 39.6316C37.6477 38.7018 37.3384 37.9825 36.7197 37.4737C36.101 36.9474 35.2348 36.5526 34.1212 36.2895L28.3674 34.9474C25.1149 34.193 22.7285 32.9561 21.2083 31.2368C19.7058 29.5175 18.9545 27.4298 18.9545 24.9737Z" fill="white" style="fill:white;fill-opacity:1;"/>
</svg>
